<svg width="50" height="54" viewBox="0 0 50 54" fill="none" xmlns="http://www.w3.org/2000/svg">
<rect y="2.30768" width="50" height="50" rx="10" fill="#455939"/>
<path d="M23.4479 27.9536C22.9608 29.4343 19.0382 23.9628 15.9484 19.3531C14.251 16.8208 9.04318 11.5585 7.22294 9.08808C6.26103 7.78258 5.95752 5.88943 7.06212 4.87067C9.74014 2.40078 13.6782 0.537164 15.3599 1.24698C16.7839 1.84805 17.7888 2.16346 18.2188 3.4992C20.0741 9.26355 24.3997 25.0604 23.4479 27.9536Z" fill="url(#paint0_linear_211_5946)"/>
<path d="M35.8723 40.8262C35.2588 44.8703 31.8504 47.9948 33.1441 50.4485C33.5043 51.1317 37.0477 48.9741 37.9571 46.3588C39.094 43.0897 41.8791 34.5088 42.6416 30.6174C43.4041 26.726 43.9548 18.3668 43.8984 16.563C43.842 14.7593 35.9074 8.27821 36.0478 9.49697C36.13 10.2108 37.9571 19.5336 37.9571 21.458C37.9571 23.3824 36.9557 28.3309 36.6183 30.6174C36.2809 32.9039 36.5605 36.2896 35.8723 40.8262Z" fill="url(#paint1_linear_211_5946)"/>
<path d="M12.3164 9.70702C11.6879 9.05559 10.7577 7.73349 9.88778 6.40779C9.02022 5.08566 6.97211 4.85451 6.09132 6.01071C5.70276 6.52077 5.64425 7.19775 5.93532 7.81586L9.11765 14.5739C9.43933 15.257 9.84351 15.9127 10.3223 16.5284L19.7709 28.6765L26.7931 40.1878C27.7148 41.6988 28.1823 43.3599 28.2704 45.0136C28.4356 48.1137 28.9249 51.9314 30.0784 52.5932C31.9585 53.6718 37.304 47.7909 37.6594 47.0651C38.0148 46.3393 35.4176 39.6991 34.0504 37.1046C32.6832 34.5101 24.4657 25.4936 23.4239 21.4508C22.3822 17.408 13.7617 11.2052 12.3164 9.70702Z" fill="url(#paint2_linear_211_5946)"/>
<path d="M26.8172 15.8913C26.722 15.704 26.3334 15.6182 26.151 15.5987C25.7822 15.5142 25.1518 15.9206 25.1042 15.9596C25.0566 15.9986 25.0685 16.0474 25.0685 16.0962C25.0685 16.145 24.9495 16.184 24.89 16.1938C24.8306 16.2035 24.664 16.2425 24.6521 16.3011C24.6402 16.3596 24.7116 16.3694 24.7354 16.4084C24.7592 16.4474 24.7711 16.5059 24.7116 16.5059C24.6521 16.5059 23.3793 16.0474 23.2722 16.0084C23.1651 15.9694 23.1057 15.8913 22.9629 15.7743C22.8202 15.6572 21.5761 15.3539 21.5385 15.3846C21.5008 15.4153 21.6127 15.83 21.6503 15.8913C21.688 15.9527 22.5703 16.4279 22.6655 16.5059C22.7607 16.584 22.8558 16.5547 22.9629 16.5645C23.07 16.5742 23.7361 16.8864 24.0454 17.0035C24.3547 17.1206 25.0209 17.2279 25.1042 17.2864C25.1874 17.3449 25.2469 17.7742 25.1993 17.7742C25.1518 17.7742 24.4737 17.8327 24.4023 17.8327C24.3309 17.8327 24.0097 17.7742 23.9384 17.7742C23.867 17.7742 23.5815 17.8132 23.522 17.8327C23.4625 17.8522 23.2127 17.5986 23.1413 17.5888C23.07 17.5791 22.4157 17.2571 22.3443 17.1888C22.303 17.1493 22.0307 17.0222 21.7917 16.9155C21.6652 16.8591 21.5277 16.6775 21.4204 16.59C21.3827 16.5593 21.1567 16.5645 21.119 16.6207C21.0386 16.7408 21.2025 16.8465 21.327 16.92C21.3469 16.9317 21.3658 16.9445 21.3827 16.9583C21.7372 17.2471 22.0326 17.6268 22.3731 17.9319C22.4224 17.9761 22.4597 18.0109 22.4752 18.0278C22.5466 18.1059 23.1057 18.3693 23.1413 18.3595C23.177 18.3498 23.8432 18.5059 24.1406 18.5741C24.438 18.6424 24.9614 18.5937 24.9852 18.6327C25.009 18.6717 25.0804 19.1107 25.0923 19.1888C25.1018 19.2512 25.5086 19.3673 25.4967 19.7253C25.4848 20.0834 24.0074 19.7253 23.9027 19.7253C23.7718 19.7253 23.5815 19.8034 23.415 19.8814C23.2484 19.9595 23.3793 20.4082 23.415 20.5253C23.4506 20.6423 24.4856 21.9203 24.6402 22.0959C24.7949 22.2715 24.8781 22.6423 24.8781 22.7008C24.8781 22.7593 24.2952 22.9252 24.2358 22.9349C24.0227 22.9699 23.7128 22.775 23.7733 22.9822C23.8232 23.153 23.9955 23.3944 24.1049 23.4617C24.2952 23.5788 24.3666 23.5008 24.6521 23.4617C24.9376 23.4227 25.2231 23.5203 25.4848 23.6178C25.7465 23.7154 25.9131 23.5788 26.0321 23.3447C26.151 23.1105 25.7941 22.9739 25.6276 22.7203C25.4944 22.5174 24.7354 21.183 24.9376 20.9057C25.1399 20.6285 26.3889 21.3233 26.4841 21.5106C26.6031 21.7447 26.3651 22.4081 26.3651 22.7203C26.3651 23.0325 26.5079 24.3397 26.4841 24.4958C26.4603 24.6519 26.8172 24.9056 26.8172 25.2178C26.8172 25.5299 27.0075 26.3884 27.0075 26.7201C27.0075 27.0518 26.9123 27.0518 26.6744 27.2664C26.4365 27.4811 25.7465 28.1054 25.7941 28.242C25.8417 28.3786 26.3176 28.4566 27.0075 28.242C27.6975 28.0274 27.6737 28.1249 27.8164 27.8128C27.9592 27.5006 27.6737 27.325 27.6737 27.1299C27.6737 26.9347 28.0306 25.8226 28.0306 25.6275C28.0306 25.4324 27.8164 24.5739 27.8164 24.3397C27.8164 24.1056 27.8164 23.852 28.0306 23.3447C28.2447 22.8374 28.1831 22.5576 28.5205 22.2827C28.8579 22.0078 28.8579 20.6332 28.5205 20.3583C28.4924 20.3355 28.4657 20.3129 28.4402 20.2908C28.1368 20.0271 27.9034 19.6787 27.8164 19.2863C27.7784 19.1146 26.8172 17.7742 26.8172 17.4913C26.8172 17.2084 27.0741 17.0737 27.1503 16.8084C27.2454 16.4767 26.9361 16.1255 26.8172 15.8913Z" fill="#293427"/>
<path d="M25.1275 41.4953C26.2001 43.6836 26.727 50.8439 26.7474 51.8069C26.7663 52.6966 27.9524 52.2891 27.9764 51.4033L28.1338 45.5883C28.1378 45.4386 28.101 45.2866 28.0265 45.1452L25.9771 41.2583C25.6282 40.5966 24.7997 40.8266 25.1275 41.4953Z" fill="#5C5913"/>
<path d="M6.31219 3.55035C8.37358 2.29902 13.0798 1.51093 14.0463 1.37092C15.5171 1.15787 16.0109 2.38593 14.6196 2.80881C12.4282 3.4749 9.27426 4.0195 8.49617 4.50584C7.29225 5.25834 6.77403 7.16025 6.99892 8.80189C7.22381 10.4435 10.7995 16.4698 13.0733 19.1143C15.347 21.7587 20.3776 28.268 22.3585 31.8752C24.3394 35.4824 27.3075 39.1409 28.8053 41.5278C30.3032 43.9146 31.0536 51.2613 30.5581 52.295C30.0625 53.3288 28.1174 53.2822 27.5147 52.8977C26.912 52.5133 27.0872 51.3271 27.1257 48.6668C27.1643 46.0065 25.1627 42.208 23.1837 37.5414C21.2047 32.8748 20.4515 31.7491 17.5909 26.9281C14.7304 22.107 10.0458 17.9248 8.89591 16.8057C7.746 15.6865 4.42123 10.8957 3.82913 9.31654C3.23703 7.73734 4.2508 4.80168 6.31219 3.55035Z" fill="url(#paint3_linear_211_5946)"/>
<defs>
<linearGradient id="paint0_linear_211_5946" x1="15.2674" y1="9.45065" x2="28.2766" y2="4.43435" gradientUnits="userSpaceOnUse">
<stop stop-color="#938F36"/>
<stop offset="1" stop-color="#ABA862"/>
</linearGradient>
<linearGradient id="paint1_linear_211_5946" x1="37.6589" y1="30.0582" x2="41.9044" y2="30.5231" gradientUnits="userSpaceOnUse">
<stop stop-color="#938F36"/>
<stop offset="1" stop-color="#ABA862"/>
</linearGradient>
<linearGradient id="paint2_linear_211_5946" x1="24.3075" y1="25.1501" x2="17.6553" y2="30.3038" gradientUnits="userSpaceOnUse">
<stop stop-color="#938F36"/>
<stop offset="1" stop-color="#ABA862"/>
</linearGradient>
<linearGradient id="paint3_linear_211_5946" x1="14.7227" y1="26.3446" x2="21.3344" y2="21.0112" gradientUnits="userSpaceOnUse">
<stop stop-color="#938F36"/>
<stop offset="1" stop-color="#A7A35A"/>
</linearGradient>
</defs>
</svg>
